:FULLY-SPECIFIED
:FORCE-ALL-JOINTS-BE-3DOF
:DEGREES
883
root 3.0163 16.4289 30.1475 0.635804 18.3972 369.278
lfemur -28.9219 12.9507 -9.34687
ltibia 45.8103 0 0
lfoot -10.6632 -14.2257 0
ltoes 5.17813 0 0
rfemur -14.0032 -5.92538 0.149606
rtibia 45.6406 0 0
rfoot 2.17754 -20.6531 0
rtoes 20.7742 0 0
lowerback 2.26558 1.08553 -1.28323
upperback 0.112823 1.39178 -2.51704
thorax -0.991071 0.703976 -1.87837
lowerneck -6.67726 -6.16725 -1.58581
upperneck 3.01802 -8.34875 4.625
head 2.44875 -4.03754 1.38835
lclavicle -2.66758e-14 1.36326e-14 0
lhumerus -53.0136 -28.5023 107.604
lradius 59.1196 0 0
lwrist 13.6389 0 0
lhand 20.1484 12.752 0
lfingers 7.12502 0 0
lthumb 44.4348 34.4506 0
rclavicle -2.66758e-14 1.36326e-14 0
rhumerus -51.5165 35.7805 -118.68
rradius 111.285 0 0
rwrist -4.44244 0 0
rhand -4.75 -12.7901 0
rfingers 7.12502 0 0
rthumb 21.0373 -761.763 0
884
root 3.03692 16.4308 30.2354 0.604381 18.2983 368.798
lfemur -28.676 13.0751 -9.33234
ltibia 45.9901 0 0
lfoot -10.6475 -14.3996 0
ltoes 5.04242 0 0
rfemur -14.1972 -6.04885 -0.170157
rtibia 45.9183 0 0
rfoot 2.55016 -20.7672 0
rtoes 21.2949 0 0
lowerback 2.26952 1.01982 -1.37436
upperback 0.109621 1.30147 -2.54649
thorax -1.00478 0.659075 -1.85588
lowerneck -6.6866 -6.21406 -1.63151
upperneck 3.07997 -8.41164 4.66984
head 2.47507 -4.06725 1.40692
lclavicle -2.57153e-14 1.38786e-14 0
lhumerus -52.894 -28.8272 107.668
lradius 59.1242 0 0
lwrist 13.5606 0 0
lhand 20.6068 12.8789 0
lfingers 7.12502 0 0
lthumb 44.8671 34.4604 0
rclavicle -2.57153e-14 1.38786e-14 0
rhumerus -51.6487 35.4561 -118.376
rradius 111.772 0 0
rwrist -4.54727 0 0
rhand -4.6784 -12.6619 0
rfingers 7.12502 0 0
rthumb 21.1062 -761.627 0
885
root 3.05697 16.4324 30.3223 0.573979 18.1984 368.326
lfemur -28.4294 13.196 -9.31621
ltibia 46.1614 0 0
lfoot -10.6344 -14.5703 0
ltoes 4.90397 0 0
rfemur -14.3902 -6.17159 -0.485594
rtibia 46.1922 0 0
rfoot 2.91376 -20.8764 0
rtoes 21.7994 0 0
lowerback 2.27295 0.955001 -1.46382
upperback 0.106389 1.21241 -2.57589
thorax -1.01812 0.614785 -1.83429
lowerneck -6.69587 -6.25925 -1.67553
upperneck 3.14076 -8.47242 4.71383
head 2.50088 -4.09593 1.42504
lclavicle -2.47665e-14 1.41165e-14 0
lhumerus -52.7771 -29.1492 107.732
lradius 59.1283 0 0
lwrist 13.485 0 0
lhand 21.0599 13.0052 0
lfingers 7.12502 0 0
lthumb 45.2945 34.4706 0
rclavicle -2.47665e-14 1.41165e-14 0
rhumerus -51.7721 35.1294 -118.062
rradius 112.242 0 0
rwrist -4.65119 0 0
rhand -4.61117 -12.5394 0
rfingers 7.12502 0 0
rthumb 21.1708 -761.497 0
886
root 3.07644 16.4338 30.408 0.544619 18.0976 367.862
lfemur -28.1822 13.3133 -9.29846
ltibia 46.3237 0 0
lfoot -10.6241 -14.7377 0
ltoes 4.7627 0 0
rfemur -14.5822 -6.29354 -0.796493
rtibia 46.4621 0 0
rfoot 3.26796 -20.9806 0
rtoes 22.287 0 0
lowerback 2.27585 0.891118 -1.55154
upperback 0.103129 1.12464 -2.60523
thorax -1.03109 0.57114 -1.81365
lowerneck -6.70504 -6.30274 -1.71782
upperneck 3.20033 -8.53101 4.75692
head 2.52616 -4.12354 1.44268
lclavicle -2.383e-14 1.43462e-14 0
lhumerus -52.6629 -29.468 107.796
lradius 59.1319 0 0
lwrist 13.4121 0 0
lhand 21.5077 13.1309 0
lfingers 7.12502 0 0
lthumb 45.7167 34.4811 0
rclavicle -2.383e-14 1.43462e-14 0
rhumerus -51.8864 34.8007 -117.739
rradius 112.693 0 0
rwrist -4.75414 0 0
rhand -4.54839 -12.423 0
rfingers 7.12502 0 0
rthumb 21.2311 -761.373 0
